HIERARCHY
ROOT joint_Root
{
  OFFSET 0 0 0
  CHANNELS 6 Xposition Yposition Zposition Zrotation Xrotation Yrotation
  JOINT Hips
  {
    OFFSET 0.847027 93.984 -452.225
    CHANNELS 6 Xposition Yposition Zposition Zrotation Xrotation Yrotation
    JOINT Spine
    {
      OFFSET 15.7357 0 0
      CHANNELS 6 Xposition Yposition Zposition Zrotation Xrotation Yrotation
      JOINT Chest
      {
        OFFSET 8.98455 -0.406207 0
        CHANNELS 6 Xposition Yposition Zposition Zrotation Xrotation Yrotation
        JOINT Neck
        {
          OFFSET 16.3773 0 0
          CHANNELS 6 Xposition Yposition Zposition Zrotation Xrotation Yrotation
          JOINT Head
          {
            OFFSET 6.45672 0 0
            CHANNELS 6 Xposition Yposition Zposition Zrotation Xrotation Yrotation
            End Site
            {
              OFFSET 0 0 0
            }
          }
        }
        JOINT Shoulder_L
        {
          OFFSET 12.9942 -0.242716 4.98039
          CHANNELS 6 Xposition Yposition Zposition Zrotation Xrotation Yrotation
          JOINT UpperArm_L
          {
            OFFSET 5.34809 0 0
            CHANNELS 6 Xposition Yposition Zposition Zrotation Xrotation Yrotation
            JOINT LowerArm_L
            {
              OFFSET 24.3286 1.87007e-05 0
              CHANNELS 6 Xposition Yposition Zposition Zrotation Xrotation Yrotation
              JOINT Hand_L
              {
                OFFSET 22.2916 0 0
                CHANNELS 6 Xposition Yposition Zposition Zrotation Xrotation Yrotation
                End Site
                {
                  OFFSET 0 0 0
                }
              }
            }
          }
        }
        JOINT Shoulder_R
        {
          OFFSET 12.9945 -0.242716 -4.98039
          CHANNELS 6 Xposition Yposition Zposition Zrotation Xrotation Yrotation
          JOINT UpperArm_R
          {
            OFFSET -5.34813 0 0
            CHANNELS 6 Xposition Yposition Zposition Zrotation Xrotation Yrotation
            JOINT LowerArm_R
            {
              OFFSET -24.3289 0.000322201 0
              CHANNELS 6 Xposition Yposition Zposition Zrotation Xrotation Yrotation
              JOINT Hand_R
              {
                OFFSET -22.2915 -0.000108084 0
                CHANNELS 6 Xposition Yposition Zposition Zrotation Xrotation Yrotation
                End Site
                {
                  OFFSET 0 0 0
                }
              }
            }
          }
        }
      }
    }
    JOINT UpperLeg_L
    {
      OFFSET -2.19248 -6.46944 0
      CHANNELS 6 Xposition Yposition Zposition Zrotation Xrotation Yrotation
      JOINT LowerLeg_L
      {
        OFFSET 39.0811 0 -1.23785e-05
        CHANNELS 6 Xposition Yposition Zposition Zrotation Xrotation Yrotation
        JOINT Foot_L
        {
          OFFSET 40.9854 0 -1.26872e-05
          CHANNELS 6 Xposition Yposition Zposition Zrotation Xrotation Yrotation
          JOINT Toes_L
          {
            OFFSET 11.7543 0 0
            CHANNELS 6 Xposition Yposition Zposition Zrotation Xrotation Yrotation
            End Site
            {
              OFFSET 0 0 0
            }
          }
        }
      }
    }
    JOINT UpperLeg_R
    {
      OFFSET -2.19251 6.46944 0
      CHANNELS 6 Xposition Yposition Zposition Zrotation Xrotation Yrotation
      JOINT LowerLeg_R
      {
        OFFSET -39.0811 -0.00228153 -0.0401928
        CHANNELS 6 Xposition Yposition Zposition Zrotation Xrotation Yrotation
        JOINT Foot_R
        {
          OFFSET -40.9854 0 0
          CHANNELS 6 Xposition Yposition Zposition Zrotation Xrotation Yrotation
          JOINT Toes_R
          {
            OFFSET -11.7543 0 0
            CHANNELS 6 Xposition Yposition Zposition Zrotation Xrotation Yrotation
            End Site
            {
              OFFSET 0 0 0
            }
          }
        }
      }
    }
  }
}
MOTION
Frames:	8
Frame Time:	0.0333333
0 0 0 0 0 -0 -2.1721 90.1911 -15.1831 89.2325 -1.0484 -2.12296 15.7357 5.1072e-06 -5.51765e-07 84.2065 82.149 -85.6732 8.98455 -0.406207 -4.3199e-07 7.83932 -1.57936 -2.82224 16.3773 -1.3905e-06 -6.99897e-07 -3.76511 -3.66208 2.63399 6.45672 -1.25837e-06 -1.02172e-07 -19.2269 -2.16649 3.08578 12.9942 -0.242716 4.98039 -90.5019 3.39065 -96.5751 5.34809 -7.22636e-06 -6.2814e-07 -46.2428 -6.6508 -44.508 24.3286 1.87007e-05 4.90208e-06 18.9721 7.02419 -70.4186 22.2916 -9.88446e-07 4.63217e-06 47.4576 5.6516 -15.1696 12.9945 -0.242716 -4.98039 89.4783 10.3214 -102.091 -5.34813 -1.25947e-06 -3.79883e-06 -37.277 -8.54642 -38.1438 -24.3289 0.000322201 -8.65921e-06 41.3315 12.4577 -76.2165 -22.2915 -0.000108084 -4.47941e-06 45.5088 5.24514 1.5604 -2.19248 -6.46944 -1.22534e-07 -172.943 -8.34796 -24.1566 39.0811 -6.73843e-06 -1.23785e-05 0.0977065 -0.151047 31.8875 40.9854 -6.48686e-06 -1.26872e-05 -4.22105 2.94102 -58.7886 11.7543 -2.30145e-07 3.05095e-06 0.0369092 -0.0580055 -17.6105 -2.19251 6.46944 -1.45247e-06 177.756 16.4152 156.308 -39.0811 -0.00228153 -0.0401928 0.106506 -0.150656 32.1865 -40.9854 7.72618e-06 5.99936e-06 -2.05537 3.94414 -60.1266 -11.7543 -5.6619e-06 -5.58687e-06 0.0913102 -0.103344 -17.5881 
0 0 0 0 0 -0 -2.02061 90.2524 -15.0585 89.2608 -1.24677 -2.23524 15.7357 5.1072e-06 -5.51765e-07 84.2136 82.148 -85.7545 8.98455 -0.406207 -4.3199e-07 7.84099 -1.57775 -2.97069 16.3773 -1.3905e-06 -6.99897e-07 -3.75813 -3.62582 2.63157 6.45672 -1.25837e-06 -1.02172e-07 -19.2107 -2.10071 3.18831 12.9942 -0.242716 4.98039 -90.5229 3.49778 -96.4925 5.34809 -7.22636e-06 -6.2814e-07 -45.9917 -6.2158 -44.9393 24.3286 1.87007e-05 4.90208e-06 19.5919 7.21097 -70.5736 22.2916 -9.88446e-07 4.63217e-06 47.439 5.6502 -15.0325 12.9945 -0.242716 -4.98039 89.4665 10.4227 -102.054 -5.34813 -1.25947e-06 -3.79883e-06 -38.3752 -8.85393 -38.6247 -24.3289 0.000322201 -8.65921e-06 40.9033 12.3594 -76.123 -22.2915 -0.000108084 -4.47941e-06 45.5931 5.24794 1.48765 -2.19248 -6.46944 -1.22534e-07 -173.071 -8.37511 -24.042 39.0811 -6.73843e-06 -1.23785e-05 0.0961374 -0.149507 31.7057 40.9854 -6.48686e-06 -1.26872e-05 -4.1683 2.76006 -58.8401 11.7543 -2.30145e-07 3.05095e-06 0.0356805 -0.0560258 -17.5755 -2.19251 6.46944 -1.45247e-06 177.645 16.4079 156.422 -39.0811 -0.00228153 -0.0401928 0.104277 -0.148801 31.856 -40.9854 7.72618e-06 5.99936e-06 -2.14245 4.13467 -59.9976 -11.7543 -5.6619e-06 -5.58687e-06 0.08609 -0.0973462 -17.5296 
0 0 0 0 0 -0 -1.87306 90.317 -14.9416 89.2703 -1.50862 -2.39442 15.7357 5.1072e-06 -5.51765e-07 84.2935 82.1698 -85.9184 8.98455 -0.406207 -4.3199e-07 7.79889 -1.55123 -3.14083 16.3773 -1.3905e-06 -6.99897e-07 -3.68702 -3.51729 2.61198 6.45672 -1.25837e-06 -1.02172e-07 -19.225 -2.04723 3.26661 12.9942 -0.242716 4.98039 -90.5375 3.53294 -96.3443 5.34809 -7.22636e-06 -6.2814e-07 -46.6097 -7.09681 -44.6955 24.3286 1.87007e-05 4.90208e-06 18.9798 6.80346 -70.9944 22.2916 -9.88446e-07 4.63217e-06 47.4122 5.65089 -15.1027 12.9945 -0.242716 -4.98039 89.4507 10.5074 -101.991 -5.34813 -1.25947e-06 -3.79883e-06 -40.1673 -10.2835 -38.7211 -24.3289 0.000322201 -8.65921e-06 39.306 12.2582 -75.4588 -22.2915 -0.000108084 -4.47941e-06 45.7715 5.24503 1.56297 -2.19248 -6.46944 -1.22534e-07 -173.19 -8.45634 -23.9875 39.0811 -6.73843e-06 -1.23785e-05 0.0951848 -0.14863 31.5563 40.9854 -6.48686e-06 -1.26872e-05 -4.10927 2.53976 -58.8824 11.7543 -2.30145e-07 3.05095e-06 0.0347459 -0.0545259 -17.549 -2.19251 6.46944 -1.45247e-06 177.571 16.3387 156.494 -39.0811 -0.00228153 -0.0401928 0.102305 -0.148163 31.4863 -40.9854 7.72618e-06 5.99936e-06 -2.22777 4.31204 -59.8397 -11.7543 -5.6619e-06 -5.58687e-06 0.0837167 -0.0946022 -17.5029 
0 0 0 0 0 -0 -1.73347 90.3684 -14.8215 89.1925 -1.76422 -2.5525 15.7357 5.1072e-06 -5.51765e-07 84.4258 82.1854 -86.119 8.98455 -0.406207 -4.3199e-07 7.77111 -1.51204 -3.28029 16.3773 -1.3905e-06 -6.99897e-07 -3.57638 -3.40868 2.53928 6.45672 -1.25837e-06 -1.02172e-07 -19.3004 -2.00435 3.37513 12.9942 -0.242716 4.98039 -90.5521 3.54386 -96.1394 5.34809 -7.22636e-06 -6.2814e-07 -47.6275 -9.05146 -44.0487 24.3286 1.87007e-05 4.90208e-06 18.046 6.30475 -71.3721 22.2916 -9.88446e-07 4.63217e-06 47.5525 5.64744 -14.7783 12.9945 -0.242716 -4.98039 89.4381 10.5248 -101.927 -5.34813 -1.25947e-06 -3.79883e-06 -42.068 -12.5849 -38.3963 -24.3289 0.000322201 -8.65921e-06 37.6423 12.3207 -74.5337 -22.2915 -0.000108084 -4.47941e-06 45.7691 5.23591 1.80247 -2.19248 -6.46944 -1.22534e-07 -173.196 -8.48726 -23.9669 39.0811 -6.73843e-06 -1.23785e-05 0.0948829 -0.148462 31.4726 40.9854 -6.48686e-06 -1.26872e-05 -4.11464 2.31136 -58.9439 11.7543 -2.30145e-07 3.05095e-06 0.03429 -0.053813 -17.5362 -2.19251 6.46944 -1.45247e-06 177.609 16.3679 156.552 -39.0811 -0.00228153 -0.0401928 0.0997341 -0.146597 31.1329 -40.9854 7.72618e-06 5.99936e-06 -2.27826 4.56762 -59.684 -11.7543 -5.6619e-06 -5.58687e-06 0.0841119 -0.0950586 -17.5073 
0 0 0 0 0 -0 -1.58765 90.4163 -14.6997 89.093 -1.98687 -2.74256 15.7357 5.1072e-06 -5.51765e-07 84.6789 82.2118 -86.4539 8.98455 -0.406207 -4.3199e-07 7.72525 -1.43809 -3.44953 16.3773 -1.3905e-06 -6.99897e-07 -3.40159 -3.33001 2.46475 6.45672 -1.25837e-06 -1.02172e-07 -19.4009 -1.98446 3.46942 12.9942 -0.242716 4.98039 -90.569 3.56801 -95.9331 5.34809 -7.22636e-06 -6.2814e-07 -48.6132 -11.7235 -43.2629 24.3286 1.87007e-05 4.90208e-06 16.7644 5.80473 -71.44 22.2916 -9.88446e-07 4.63217e-06 47.5728 5.64402 -14.4719 12.9945 -0.242716 -4.98039 89.4177 10.5781 -101.831 -5.34813 -1.25947e-06 -3.79883e-06 -43.8126 -15.4837 -37.7092 -24.3289 0.000322201 -8.65921e-06 36.2095 12.548 -73.4664 -22.2915 -0.000108084 -4.47941e-06 45.6531 5.23189 1.90653 -2.19248 -6.46944 -1.22534e-07 -173.195 -8.48618 -24.0141 39.0811 -6.73843e-06 -1.23785e-05 0.0945129 -0.148211 31.4606 40.9854 -6.48686e-06 -1.26872e-05 -4.07238 2.06641 -59.0547 11.7543 -2.30145e-07 3.05095e-06 0.0349343 -0.0548271 -17.5542 -2.19251 6.46944 -1.45247e-06 177.67 16.4495 156.587 -39.0811 -0.00228153 -0.0401928 0.0983346 -0.146072 30.7782 -40.9854 7.72618e-06 5.99936e-06 -2.33486 4.85869 -59.5302 -11.7543 -5.6619e-06 -5.58687e-06 0.0797412 -0.0900577 -17.4585 
0 0 0 0 0 -0 -1.45343 90.4538 -14.5593 88.9764 -2.16755 -2.88133 15.7357 5.1072e-06 -5.51765e-07 84.9006 82.2175 -86.7711 8.98455 -0.406207 -4.3199e-07 7.71923 -1.37717 -3.64445 16.3773 -1.3905e-06 -6.99897e-07 -3.22634 -3.19222 2.36862 6.45672 -1.25837e-06 -1.02172e-07 -19.5694 -1.93569 3.5518 12.9942 -0.242716 4.98039 -90.5743 3.51944 -95.7263 5.34809 -7.22636e-06 -6.2814e-07 -49.6852 -14.8933 -42.4151 24.3286 1.87007e-05 4.90208e-06 15.8118 5.49057 -71.3329 22.2916 -9.88446e-07 4.63217e-06 47.4603 5.63964 -14.096 12.9945 -0.242716 -4.98039 89.3945 10.6438 -101.725 -5.34813 -1.25947e-06 -3.79883e-06 -45.1752 -18.5849 -36.7396 -24.3289 0.000322201 -8.65921e-06 35.0217 12.8673 -72.3711 -22.2915 -0.000108084 -4.47941e-06 45.639 5.21444 2.35488 -2.19248 -6.46944 -1.22534e-07 -173.168 -8.51859 -24.0094 39.0811 -6.73843e-06 -1.23785e-05 0.0939556 -0.147605 31.4536 40.9854 -6.48686e-06 -1.26872e-05 -4.01707 1.90778 -59.1886 11.7543 -2.30145e-07 3.05095e-06 0.0338031 -0.0530213 -17.5223 -2.19251 6.46944 -1.45247e-06 177.728 16.4645 156.672 -39.0811 -0.00228153 -0.0401928 0.0958212 -0.143873 30.4863 -40.9854 7.72618e-06 5.99936e-06 -2.40885 5.03178 -59.4359 -11.7543 -5.6619e-06 -5.58687e-06 0.0805862 -0.0909972 -17.4678 
0 0 0 0 0 -0 -1.3331 90.4933 -14.4241 88.8577 -2.2934 -3.05045 15.7357 5.1072e-06 -5.51765e-07 85.0131 82.2138 -86.9988 8.98455 -0.406207 -4.3199e-07 7.72875 -1.34762 -3.87641 16.3773 -1.3905e-06 -6.99897e-07 -3.09477 -3.04365 2.27689 6.45672 -1.25837e-06 -1.02172e-07 -19.799 -1.85473 3.59557 12.9942 -0.242716 4.98039 -90.5796 3.47236 -95.5176 5.34809 -7.22636e-06 -6.2814e-07 -50.8289 -18.3264 -41.8021 24.3286 1.87007e-05 4.90208e-06 15.0298 5.29846 -71.0185 22.2916 -9.88446e-07 4.63217e-06 47.5741 5.63362 -13.6137 12.9945 -0.242716 -4.98039 89.3614 10.7247 -101.572 -5.34813 -1.25947e-06 -3.79883e-06 -46.384 -21.6891 -35.7949 -24.3289 0.000322201 -8.65921e-06 33.7336 13.1314 -71.2113 -22.2915 -0.000108084 -4.47941e-06 45.4779 5.20148 2.68207 -2.19248 -6.46944 -1.22534e-07 -173.134 -8.47339 -24.0548 39.0811 -6.73843e-06 -1.23785e-05 0.0934957 -0.146933 31.4566 40.9854 -6.48686e-06 -1.26872e-05 -3.94859 1.72177 -59.3091 11.7543 -2.30145e-07 3.05095e-06 0.033744 -0.0529174 -17.5205 -2.19251 6.46944 -1.45247e-06 177.781 16.3816 156.739 -39.0811 -0.00228153 -0.0401928 0.0948058 -0.143764 30.1785 -40.9854 7.72618e-06 5.99936e-06 -2.51411 5.09594 -59.3387 -11.7543 -5.6619e-06 -5.58687e-06 0.0792723 -0.0895017 -17.4531 
0 0 0 0 0 -0 -1.22034 90.5356 -14.2914 88.702 -2.31101 -3.20159 15.7357 5.1072e-06 -5.51765e-07 84.9128 82.196 -87.0052 8.98455 -0.406207 -4.3199e-07 7.76038 -1.37831 -4.08715 16.3773 -1.3905e-06 -6.99897e-07 -2.8762 -2.87514 2.11925 6.45672 -1.25837e-06 -1.02172e-07 -20.2009 -1.67878 3.59301 12.9942 -0.242716 4.98039 -90.5883 3.45516 -95.3318 5.34809 -7.22636e-06 -6.2814e-07 -52.3166 -21.9264 -41.5213 24.3286 1.87007e-05 4.90208e-06 14.3566 5.15065 -70.6613 22.2916 -9.88446e-07 4.63217e-06 47.5782 5.62994 -13.3328 12.9945 -0.242716 -4.98039 89.3213 10.8048 -101.384 -5.34813 -1.25947e-06 -3.79883e-06 -47.6168 -24.5777 -35.0716 -24.3289 0.000322201 -8.65921e-06 32.7538 13.4999 -70.0562 -22.2915 -0.000108084 -4.47941e-06 45.5249 5.18461 3.10207 -2.19248 -6.46944 -1.22534e-07 -173.061 -8.42296 -24.1032 39.0811 -6.73843e-06 -1.23785e-05 0.0932928 -0.146395 31.4564 40.9854 -6.48686e-06 -1.26872e-05 -3.8921 1.61586 -59.4087 11.7543 -2.30145e-07 3.05095e-06 0.0334345 -0.0524332 -17.5119 -2.19251 6.46944 -1.45247e-06 177.856 16.2775 156.864 -39.0811 -0.00228153 -0.0401928 0.0903695 -0.138747 29.8388 -40.9854 7.72618e-06 5.99936e-06 -2.64645 5.02165 -59.245 -11.7543 -5.6619e-06 -5.58687e-06 0.0790258 -0.0892186 -17.4504 
